# xmcd
#
# Track frame offsets:
#	150
#	17395
#	32897
#	58664
#	73234
#	88563
#	109930
#	127757
#	149331
#	169675
#	189647
#	207753
#	221995
#	238660
#	257947
#	273759
#	289618
#	306210
#
# Disc length: 4251 seconds
#
# Revision: 0
# Processed by: cddbd v1.4b42PL0 Copyright (c) Steve Scherf et al.
# Submitted via: EZCDDA 4.3.3.2
#
DISCID=0d109912
DTITLE=Various Artist - Country Collection
DYEAR=1900
DGENRE=
TTITLE0=Vince Gill - Pretty Little Adriana
TTITLE1=Vince Gill - You And You Alone
TTITLE2=Vince Gill - Worlds Apart
TTITLE3=Vince Gill - I've Been Hearing Things
TTITLE4=Vince Gill - Livin' The Way I Do
TTITLE5=Vince Gill - With You
TTITLE6=Vince Gill - The Way Back Home
TTITLE7=Vince Gill - Losing Your Love
TTITLE8=Vince Gill - Something's Missing 
TTITLE9=Vince Gill - Colder Than Winter
TTITLE10=Vince Gill - I Never Knew Lonely
TTITLE11=Vince Gill - Sight For Sore Eyes
TTITLE12=Vince Gill - Oh Girl
TTITLE13=Vince Gill - When I Call Your Name
TTITLE14=Vince Gill - We Could Have Been
TTITLE15=Kenny Chesney -When I Close My Eyes
TTITLE16=Kenny Chesney - Me And You
TTITLE17=John M. Montgomery - Ain't Got Nothing On Us
EXTD=
EXTT0=
EXTT1=
EXTT2=
EXTT3=
EXTT4=
EXTT5=
EXTT6=
EXTT7=
EXTT8=
EXTT9=
EXTT10=
EXTT11=
EXTT12=
EXTT13=
EXTT14=
EXTT15=
EXTT16=
EXTT17=
PLAYORDER=
